<svg width="27.000000" height="27.000000" viewBox="0 0 27 27" fill="none" xmlns="http://www.w3.org/2000/svg" xmlns:xlink="http://www.w3.org/1999/xlink">
	<desc>
			Created with Pixso.
	</desc>
	<defs>
		<clipPath id="clip5_39">
			<rect id="github-dark" width="27.000000" height="27.000000" fill="white" fill-opacity="0"/>
		</clipPath>
	</defs>
	<g clip-path="url(#clip5_39)">
		<path id="path" d="M13.5 0C6.04 0 0 6.18 0 13.82C0 19.93 3.86 25.11 9.23 26.94C9.9 27.06 10.15 26.64 10.15 26.27C10.15 25.94 10.14 24.85 10.13 23.7C6.38 24.53 5.58 22.07 5.58 22.07C4.97 20.47 4.08 20.04 4.08 20.04C2.86 19.19 4.18 19.2 4.18 19.2C5.53 19.3 6.25 20.63 6.25 20.63C7.45 22.74 9.4 22.13 10.17 21.78C10.3 20.88 10.65 20.27 11.03 19.93C8.03 19.58 4.88 18.39 4.88 13.1C4.88 11.59 5.41 10.35 6.27 9.39C6.13 9.04 5.67 7.63 6.4 5.73C6.4 5.73 7.54 5.36 10.12 7.15C11.19 6.84 12.35 6.69 13.5 6.68C14.64 6.69 15.8 6.84 16.88 7.15C19.45 5.36 20.59 5.73 20.59 5.73C21.32 7.63 20.86 9.04 20.72 9.39C21.58 10.35 22.11 11.59 22.11 13.1C22.11 18.41 18.95 19.58 15.94 19.92C16.43 20.35 16.86 21.19 16.86 22.48C16.86 24.33 16.84 25.82 16.84 26.27C16.84 26.64 17.09 27.07 17.77 26.93C23.13 25.11 27 19.93 27 13.82C27 6.18 20.95 0 13.5 0ZM5.05 19.69C5.02 19.76 4.92 19.78 4.82 19.73C4.72 19.68 4.67 19.59 4.7 19.52C4.73 19.45 4.83 19.43 4.93 19.48C5.03 19.52 5.09 19.62 5.05 19.69ZM5.72 20.29C5.65 20.36 5.53 20.33 5.44 20.23C5.35 20.13 5.33 20.01 5.4 19.94C5.47 19.88 5.59 19.91 5.68 20.01C5.77 20.1 5.78 20.23 5.72 20.29ZM6.17 21.07C6.09 21.13 5.95 21.07 5.87 20.95C5.79 20.83 5.79 20.68 5.87 20.62C5.95 20.56 6.09 20.62 6.17 20.74C6.26 20.86 6.26 21.01 6.17 21.07ZM6.94 21.97C6.87 22.05 6.71 22.03 6.59 21.92C6.48 21.81 6.44 21.65 6.52 21.56C6.59 21.48 6.75 21.5 6.87 21.62C6.98 21.73 7.02 21.89 6.94 21.97ZM7.94 22.27C7.9 22.38 7.75 22.43 7.6 22.38C7.45 22.34 7.35 22.21 7.38 22.1C7.41 21.99 7.56 21.94 7.72 21.99C7.87 22.04 7.97 22.16 7.94 22.27ZM9.07 22.4C9.07 22.52 8.94 22.61 8.78 22.61C8.62 22.62 8.49 22.52 8.49 22.41C8.49 22.3 8.62 22.2 8.78 22.2C8.94 22.2 9.07 22.29 9.07 22.4ZM10.18 22.36C10.2 22.47 10.09 22.58 9.93 22.61C9.78 22.64 9.63 22.58 9.61 22.46C9.59 22.35 9.7 22.24 9.86 22.21C10.02 22.18 10.16 22.25 10.18 22.36Z" fill="#FFFFFF" fill-opacity="0.780000" fill-rule="nonzero"/>
	</g>
</svg>
