<svg width="16.000000" height="16.000000" viewBox="0 0 16 16" fill="none" xmlns="http://www.w3.org/2000/svg" xmlns:xlink="http://www.w3.org/1999/xlink">
	<desc>
			Created with Pixso.
	</desc>
	<defs/>
	<path id="Vector" d="M10.69 0L5.3 0L5.3 0C4.49 0 3.85 0 3.33 0.04C2.8 0.09 2.35 0.2 1.94 0.44C1.27 0.83 0.72 1.45 0.38 2.21C0.17 2.68 0.08 3.2 0.04 3.8C0 4.4 0 5.13 0 6.05L0 6.05L0 9.94L0 9.94C0 10.86 0 11.59 0.04 12.19C0.08 12.79 0.17 13.31 0.38 13.78C0.72 14.54 1.27 15.16 1.94 15.55C2.35 15.79 2.8 15.9 3.33 15.95C3.85 16 4.49 16 5.3 16L10.69 16C11.5 16 12.14 16 12.66 15.95C13.19 15.9 13.64 15.79 14.05 15.55C14.72 15.16 15.27 14.54 15.61 13.78C15.82 13.31 15.91 12.79 15.95 12.19C16 11.59 16 10.86 16 9.94L16 6.05C16 5.13 16 4.4 15.95 3.8C15.91 3.2 15.82 2.68 15.61 2.21C15.27 1.45 14.72 0.83 14.05 0.44C13.64 0.2 13.19 0.09 12.66 0.04C12.14 0 11.5 0 10.69 0L10.69 0ZM2.47 1.64C2.69 1.51 2.97 1.43 3.43 1.39C3.89 1.35 4.49 1.35 5.33 1.35L6.21 1.35L6.21 14.64L5.33 14.64C4.49 14.64 3.89 14.64 3.43 14.6C2.97 14.56 2.69 14.48 2.47 14.35C2.03 14.09 1.67 13.68 1.44 13.17C1.33 12.92 1.26 12.6 1.22 12.08C1.18 11.55 1.18 10.87 1.18 9.91L1.18 6.08C1.18 5.12 1.18 4.44 1.22 3.91C1.26 3.39 1.33 3.07 1.44 2.82C1.67 2.31 2.03 1.9 2.47 1.64ZM7.4 14.64L10.66 14.64C11.5 14.64 12.1 14.64 12.56 14.6C13.02 14.56 13.3 14.48 13.52 14.35C13.96 14.09 14.32 13.68 14.55 13.17C14.66 12.92 14.73 12.6 14.77 12.08C14.81 11.55 14.81 10.87 14.81 9.91L14.81 6.08C14.81 5.12 14.81 4.44 14.77 3.91C14.73 3.39 14.66 3.07 14.55 2.82C14.32 2.31 13.96 1.9 13.52 1.64C13.3 1.51 13.02 1.43 12.56 1.39C12.1 1.35 11.5 1.35 10.66 1.35L7.4 1.35L7.4 14.64ZM2.44 3.97C2.44 3.59 2.71 3.29 3.03 3.29L4.37 3.29C4.69 3.29 4.96 3.59 4.96 3.97C4.96 4.34 4.69 4.64 4.37 4.64L3.03 4.64C2.71 4.64 2.44 4.34 2.44 3.97ZM3.03 5.82C2.71 5.82 2.44 6.13 2.44 6.5C2.44 6.87 2.71 7.18 3.03 7.18L4.37 7.18C4.69 7.18 4.96 6.87 4.96 6.5C4.96 6.13 4.69 5.82 4.37 5.82L3.03 5.82Z" fill="#74798B" fill-opacity="1.000000" fill-rule="evenodd"/>
</svg>
