<svg width="14.000000" height="14.000000" viewBox="0 0 14 14" fill="none" xmlns="http://www.w3.org/2000/svg" xmlns:xlink="http://www.w3.org/1999/xlink">
	<desc>
			Created with Pixso.
	</desc>
	<defs>
		<clipPath id="clip31_233">
			<rect id="icon" width="14.000000" height="14.000000" fill="white" fill-opacity="0"/>
		</clipPath>
	</defs>
	<g clip-path="url(#clip31_233)">
		<path id="vector" d="M3.96753 1.62378C4.77454 0.83667 5.8656 0.397461 7 0.397461C8.1344 0.397461 9.22546 0.83667 10.0325 1.62378C10.84 2.41113 11.2966 3.48267 11.2966 4.60327C11.2966 6.58643 11.7314 7.81396 12.1294 8.52539C12.3293 8.88281 12.5238 9.11694 12.6583 9.25562C12.7258 9.32495 12.7786 9.37085 12.8101 9.39624C12.8258 9.40918 12.8362 9.41675 12.8405 9.41992L12.8417 9.4209C13.0737 9.57642 13.1782 9.86523 13.0985 10.134C13.0181 10.4058 12.7684 10.592 12.485 10.592L1.51501 10.592C1.23157 10.592 0.981934 10.4058 0.901489 10.134C0.821777 9.86523 0.92627 9.57642 1.15833 9.4209L1.15955 9.41992C1.16382 9.41675 1.17419 9.40918 1.18994 9.39624C1.22144 9.37085 1.27417 9.32495 1.34167 9.25562C1.4762 9.11694 1.67065 8.88281 1.87061 8.52539C2.26855 7.81396 2.70337 6.58643 2.70337 4.60327C2.70337 3.48267 3.16003 2.41113 3.96753 1.62378ZM2.89343 9.31226L11.1066 9.31226C11.0751 9.26025 11.0437 9.2063 11.0123 9.15015C10.4961 8.22729 10.0167 6.78027 10.0167 4.60327C10.0167 3.83252 9.70288 3.09009 9.13892 2.54004C8.57434 1.9895 7.80518 1.67725 7 1.67725C6.19482 1.67725 5.42566 1.9895 4.86108 2.54004C4.29712 3.09009 3.98328 3.83252 3.98328 4.60327C3.98328 6.78027 3.50391 8.22729 2.98767 9.15015C2.9563 9.2063 2.92493 9.26025 2.89343 9.31226ZM5.88623 11.875C5.70142 11.5564 5.29333 11.4478 4.97473 11.6326C4.65613 11.8174 4.54761 12.2256 4.73242 12.5442C4.95862 12.9341 5.2832 13.2576 5.67371 13.4827C6.06421 13.7075 6.50696 13.8259 6.95764 13.8259C7.40833 13.8259 7.85107 13.7075 8.24158 13.4827C8.63208 13.2576 8.95667 12.9341 9.18286 12.5442C9.36768 12.2256 9.25916 11.8174 8.94055 11.6326C8.62195 11.4478 8.21387 11.5564 8.02905 11.875C7.92017 12.0625 7.76392 12.2185 7.57581 12.3267C7.38782 12.4351 7.17468 12.4919 6.95764 12.4919C6.7406 12.4919 6.52747 12.4351 6.33948 12.3267C6.15137 12.2185 5.99512 12.0625 5.88623 11.875Z" clip-rule="evenodd" fill="#FFFFFF" fill-opacity="1.000000" fill-rule="evenodd"/>
	</g>
</svg>
