<svg width="10.497070" height="12.830322" viewBox="0 0 10.4971 12.8303" fill="none" xmlns="http://www.w3.org/2000/svg" xmlns:xlink="http://www.w3.org/1999/xlink">
	<desc>
			Created with Pixso.
	</desc>
	<defs/>
	<path id="Vector" d="M1.74 0C1.28 0 0.84 0.18 0.51 0.51C0.18 0.84 0 1.28 0 1.74L0 11.08C0 11.54 0.18 11.99 0.51 12.31C0.84 12.64 1.28 12.83 1.74 12.83L8.74 12.83C9.21 12.83 9.65 12.64 9.98 12.31C10.31 11.99 10.49 11.54 10.49 11.08L10.49 4.66C10.49 4.5 10.43 4.35 10.32 4.25L10.32 4.25L6.24 0.17L6.24 0.17C6.13 0.06 5.98 0 5.83 0L1.74 0ZM5.25 1.16L1.74 1.16C1.59 1.16 1.44 1.22 1.33 1.33C1.22 1.44 1.16 1.59 1.16 1.74L1.16 11.08C1.16 11.23 1.22 11.38 1.33 11.49C1.44 11.6 1.59 11.66 1.74 11.66L8.74 11.66C8.9 11.66 9.05 11.6 9.16 11.49C9.27 11.38 9.33 11.23 9.33 11.08L9.33 5.24L5.83 5.24C5.51 5.24 5.25 4.98 5.25 4.66L5.25 1.16ZM8.51 4.08L6.41 1.98L6.41 4.08L8.51 4.08Z" fill="#FFFFFF" fill-opacity="1.000000" fill-rule="evenodd"/>
</svg>
