<svg width="11.663940" height="11.663818" viewBox="0 0 11.6639 11.6638" fill="none" xmlns="http://www.w3.org/2000/svg" xmlns:xlink="http://www.w3.org/1999/xlink">
	<desc>
			Created with Pixso.
	</desc>
	<defs/>
	<path id="Vector" d="M1.16 5.24C1.16 2.99 2.99 1.16 5.24 1.16C7.5 1.16 9.33 2.99 9.33 5.24C9.33 6.34 8.89 7.34 8.18 8.08C8.17 8.09 8.15 8.11 8.13 8.13C8.11 8.15 8.09 8.16 8.08 8.18C7.34 8.89 6.34 9.33 5.24 9.33C2.99 9.33 1.16 7.5 1.16 5.24ZM8.52 9.34C7.62 10.06 6.48 10.49 5.24 10.49C2.34 10.49 0 8.14 0 5.24C0 2.34 2.34 0 5.24 0C8.14 0 10.49 2.34 10.49 5.24C10.49 6.48 10.06 7.62 9.34 8.52L11.49 10.67C11.72 10.89 11.72 11.26 11.49 11.49C11.26 11.72 10.89 11.72 10.67 11.49L8.52 9.34Z" fill="#FFFFFF" fill-opacity="1.000000" fill-rule="evenodd"/>
</svg>
