<svg width="12.830444" height="12.830322" viewBox="0 0 12.8304 12.8303" fill="none" xmlns="http://www.w3.org/2000/svg" xmlns:xlink="http://www.w3.org/1999/xlink">
	<desc>
			Created with Pixso.
	</desc>
	<defs/>
	<path id="Vector" d="M1.16 6.41C1.16 3.51 3.51 1.16 6.41 1.16C9.31 1.16 11.66 3.51 11.66 6.41C11.66 9.31 9.31 11.66 6.41 11.66C3.51 11.66 1.16 9.31 1.16 6.41ZM6.41 0C2.87 0 0 2.87 0 6.41C0 9.95 2.87 12.83 6.41 12.83C9.95 12.83 12.83 9.95 12.83 6.41C12.83 2.87 9.95 0 6.41 0ZM9.74 4.63C9.97 4.41 9.97 4.04 9.74 3.81C9.51 3.58 9.14 3.58 8.92 3.81L5.32 7.41L3.91 6C3.68 5.77 3.31 5.77 3.08 6C2.86 6.23 2.86 6.59 3.08 6.82L4.91 8.64C5.13 8.87 5.5 8.87 5.73 8.64L9.74 4.63Z" fill="#FFFFFF" fill-opacity="1.000000" fill-rule="evenodd"/>
</svg>
