<svg width="31.000000" height="31.000000" viewBox="0 0 31 31" fill="none" xmlns="http://www.w3.org/2000/svg" xmlns:xlink="http://www.w3.org/1999/xlink">
	<desc>
			Created with Pixso.
	</desc>
	<defs/>
	<path id="Vector" d="M24.54 11.62C24.54 6.63 20.49 2.58 15.5 2.58C10.5 2.58 6.45 6.63 6.45 11.62C6.45 13.41 6.98 15.08 7.88 16.48L7.87 16.48C10.92 21.26 15.5 28.41 15.5 28.41L23.12 16.48L23.11 16.48C24.01 15.08 24.54 13.41 24.54 11.62ZM15.5 15.5C13.35 15.5 11.62 13.76 11.62 11.62C11.62 9.48 13.35 7.75 15.5 7.75C17.64 7.75 19.37 9.48 19.37 11.62C19.37 13.76 17.64 15.5 15.5 15.5Z" fill="#E4D9D9" fill-opacity="1.000000" fill-rule="nonzero"/>
</svg>
