<svg xmlns="http://www.w3.org/2000/svg" viewBox="0 0 512 512"><defs><style>.cls-1{fill:#ff7045;}.cls-2{fill:#505560;}.cls-3{fill:#636978;}.cls-4{fill:#595f6b;}.cls-5{fill:#b3f2d7;}.cls-6{fill:#a3d8bf;}.cls-7{fill:#8a4711;}.cls-8{fill:#70350e;}.cls-9{fill:#fff;}.cls-10{fill:#23a8fe;}.cls-11,.cls-16{fill:none;stroke-linecap:round;stroke-miterlimit:10;stroke-width:10px;}.cls-11{stroke:#595f6b;}.cls-12{fill:#f92814;}.cls-13{fill:#ffda45;}.cls-14{fill:#76d67b;}.cls-15{fill:#e2c139;}.cls-16{stroke:#fff;}.cls-17{fill:#d81d13;}.cls-18{fill:#f7453c;}.cls-19{fill:#e8ba64;}</style></defs><title>Development</title><g id="BULINE"><circle class="cls-1" cx="256" cy="256" r="256"/></g><g id="Icons"><rect class="cls-2" x="225.1" y="323.38" width="60.97" height="63.06"/><path class="cls-3" d="M416.27,151.41V312.74a23.78,23.78,0,0,1-23.78,23.77H118.7a23.78,23.78,0,0,1-23.79-23.77V151.41a23.78,23.78,0,0,1,23.79-23.77H392.49A23.78,23.78,0,0,1,416.27,151.41Z"/><path class="cls-4" d="M188.49,336.51H118.7a23.78,23.78,0,0,1-23.79-23.77V151.41a23.78,23.78,0,0,1,23.79-23.77h69.79a23.77,23.77,0,0,0-23.78,23.77V312.74A23.77,23.77,0,0,0,188.49,336.51Z"/><rect class="cls-3" x="199.1" y="382.43" width="112.99" height="25.67" rx="12.84"/><path class="cls-5" d="M416.27,151.41V309.26H94.91V151.41a23.78,23.78,0,0,1,23.79-23.77H392.49A23.78,23.78,0,0,1,416.27,151.41Z"/><path class="cls-6" d="M188.49,127.64a23.77,23.77,0,0,0-23.78,23.77V309.26H94.91V151.41a23.78,23.78,0,0,1,23.79-23.77Z"/><path class="cls-7" d="M461.22,408.1a256,256,0,0,1-411.86,0Z"/><path class="cls-8" d="M427.26,445.64a256,256,0,0,1-343.94,0Z"/><path class="cls-9" d="M386,163.19v113.7a18.26,18.26,0,0,1-18.25,18.25H143.47a18.25,18.25,0,0,1-18.25-18.25V163.19A18.25,18.25,0,0,1,143.47,145H367.72A18.25,18.25,0,0,1,386,163.19Z"/><path class="cls-10" d="M386,163.19v10.64H125.22V163.19A18.25,18.25,0,0,1,143.47,145H367.72A18.25,18.25,0,0,1,386,163.19Z"/><line class="cls-11" x1="203.35" y1="195.69" x2="298.42" y2="195.69"/><line class="cls-11" x1="203.35" y1="273.31" x2="298.42" y2="273.31"/><line class="cls-11" x1="203.35" y1="236.46" x2="270.89" y2="236.46"/><line class="cls-11" x1="203.35" y1="215.25" x2="256.62" y2="215.25"/><line class="cls-11" x1="270.89" y1="215.25" x2="298.42" y2="215.25"/><line class="cls-11" x1="203.35" y1="255.41" x2="256.62" y2="255.41"/><line class="cls-11" x1="270.89" y1="255.41" x2="298.42" y2="255.41"/><line class="cls-11" x1="289.08" y1="236.46" x2="298.42" y2="236.46"/><circle class="cls-12" cx="148.97" cy="159.39" r="7.27"/><circle class="cls-13" cx="171.94" cy="159.39" r="7.27"/><circle class="cls-14" cx="194.9" cy="159.39" r="7.27"/><path class="cls-3" d="M167.75,220.93v-9.49a1.3,1.3,0,0,1,1.18-1.29,5.94,5.94,0,0,0,4-1.76q1.63-1.81,1.64-5.8v-6.07q0-7.86,3.17-11t10.62-3.18h4.41a1.31,1.31,0,0,1,1.31,1.31v9a1.31,1.31,0,0,1-1.31,1.3h0c-2.12,0-3.54.53-4.29,1.59s-1.11,3.13-1.11,6.21v1.94q0,10.9-6.38,12.49v.17q6.38,1.59,6.38,12.49v1.94q0,4.62,1.11,6.21c.75,1.06,2.17,1.59,4.29,1.59h0a1.31,1.31,0,0,1,1.31,1.3v9a1.31,1.31,0,0,1-1.31,1.31h-4.41q-7.62,0-10.7-3.25t-3.09-11v-6.07q0-3.94-1.62-5.78a6,6,0,0,0-4-1.78A1.3,1.3,0,0,1,167.75,220.93Z"/><path class="cls-3" d="M335,242.66v9.49a1.31,1.31,0,0,1-1.19,1.29,6,6,0,0,0-4,1.76q-1.63,1.82-1.64,5.8v6.07q0,7.86-3.17,11t-10.62,3.18H310a1.31,1.31,0,0,1-1.3-1.31v-9a1.3,1.3,0,0,1,1.3-1.3h0q3.18,0,4.29-1.59t1.11-6.21V260q0-10.91,6.38-12.49v-.17q-6.37-1.59-6.38-12.49v-1.94q0-4.62-1.11-6.21T310,225.09h0a1.3,1.3,0,0,1-1.3-1.3v-9a1.31,1.31,0,0,1,1.3-1.31h4.41q7.62,0,10.71,3.25t3.08,11v6.06q0,4,1.63,5.79a5.91,5.91,0,0,0,4,1.78A1.3,1.3,0,0,1,335,242.66Z"/><path class="cls-13" d="M374.81,79.25H135.48A9.53,9.53,0,0,1,126,69.73v-38a9.14,9.14,0,0,1,.39-2.68,9.51,9.51,0,0,1,9.14-6.84H374.81a9.5,9.5,0,0,1,9.13,6.84,9.14,9.14,0,0,1,.39,2.68v38A9.52,9.52,0,0,1,374.81,79.25Z"/><path class="cls-15" d="M374.81,35.92H135.48a9.54,9.54,0,0,1-9.14-6.83,9.51,9.51,0,0,1,9.14-6.84H374.81a9.5,9.5,0,0,1,9.13,6.84A9.53,9.53,0,0,1,374.81,35.92Z"/><line class="cls-16" x1="368.63" y1="72.59" x2="368.63" y2="59.59"/><line class="cls-16" x1="350.96" y1="72.59" x2="350.96" y2="59.59"/><line class="cls-16" x1="333.3" y1="72.59" x2="333.3" y2="59.59"/><line class="cls-16" x1="315.63" y1="72.59" x2="315.63" y2="59.59"/><line class="cls-16" x1="297.96" y1="72.59" x2="297.96" y2="59.59"/><line class="cls-16" x1="280.3" y1="72.59" x2="280.3" y2="59.59"/><line class="cls-16" x1="262.63" y1="72.59" x2="262.63" y2="59.59"/><line class="cls-16" x1="244.96" y1="72.59" x2="244.96" y2="59.59"/><line class="cls-16" x1="227.3" y1="72.59" x2="227.3" y2="59.59"/><line class="cls-16" x1="209.63" y1="72.59" x2="209.63" y2="59.59"/><line class="cls-16" x1="191.96" y1="72.59" x2="191.96" y2="59.59"/><line class="cls-16" x1="174.3" y1="72.59" x2="174.3" y2="59.59"/><line class="cls-16" x1="156.63" y1="72.59" x2="156.63" y2="59.59"/><line class="cls-16" x1="138.96" y1="72.59" x2="138.96" y2="59.59"/><rect class="cls-17" x="255.9" y="-8.82" width="8.75" height="208.5" transform="translate(355.71 -164.84) rotate(90)"/><rect class="cls-12" x="255.9" y="-0.07" width="8.75" height="208.5" transform="translate(364.46 -156.09) rotate(90)"/><rect class="cls-18" x="255.9" y="8.68" width="8.75" height="208.5" transform="translate(373.21 -147.34) rotate(90)"/><path class="cls-1" d="M126.9,88.18h26.25a0,0,0,0,1,0,0v21.62a10.38,10.38,0,0,1-10.38,10.38h-5.5a10.37,10.37,0,0,1-10.37-10.37V88.18a0,0,0,0,1,0,0Z" transform="translate(244.21 -35.84) rotate(90)"/><rect class="cls-3" x="138.27" y="99.56" width="26.25" height="9.25" transform="translate(255.58 -47.22) rotate(90)"/><path class="cls-19" d="M364.52,117.31V91.06L377.85,98l6.75,3.5a3.06,3.06,0,0,1,0,5.45l-6.75,3.5Z"/><path class="cls-3" d="M377.85,110.41V98l6.75,3.5a3.06,3.06,0,0,1,0,5.45Z"/></g></svg>