<svg width="16.000000" height="16.000000" viewBox="0 0 16 16" fill="none" xmlns="http://www.w3.org/2000/svg" xmlns:xlink="http://www.w3.org/1999/xlink">
	<desc>
			Created with Pixso.
	</desc>
	<defs>
		<clipPath id="clip31_410">
			<rect width="16.000000" height="16.000000" fill="white" fill-opacity="0"/>
		</clipPath>
	</defs>
	<g clip-path="url(#clip31_410)">
		<path d="M2.35 4.34C2.35 3.99 2.64 3.69 3 3.69L13 3.69C13.35 3.69 13.65 3.99 13.65 4.34C13.65 4.7 13.35 4.99 13 4.99L3 4.99C2.64 4.99 2.35 4.7 2.35 4.34ZM3.85 7.99C3.85 7.64 4.14 7.34 4.5 7.34L11.5 7.34C11.85 7.34 12.15 7.64 12.15 7.99C12.15 8.35 11.85 8.64 11.5 8.64L4.5 8.64C4.14 8.64 3.85 8.35 3.85 7.99ZM6.5 10.84C6.14 10.84 5.85 11.14 5.85 11.49C5.85 11.85 6.14 12.14 6.5 12.14L9.5 12.14C9.85 12.14 10.15 11.85 10.15 11.49C10.15 11.14 9.85 10.84 9.5 10.84L6.5 10.84Z" fill="#FFFFFF" fill-opacity="1.000000" fill-rule="evenodd"/>
	</g>
</svg>
