<svg width="16.000000" height="16.000000" viewBox="0 0 16 16" fill="none" xmlns="http://www.w3.org/2000/svg" xmlns:xlink="http://www.w3.org/1999/xlink">
	<desc>
			Created with Pixso.
	</desc>
	<defs>
		<clipPath id="clip31_414">
			<rect id="icon" width="16.000000" height="16.000000" fill="white" fill-opacity="0"/>
		</clipPath>
	</defs>
	<g clip-path="url(#clip31_414)">
		<path id="Vector" d="M11.93 5.49L8 2.12L4.06 5.49C3.78 5.73 3.75 6.15 3.99 6.43C4.23 6.71 4.65 6.74 4.93 6.5L8 3.87L11.06 6.5C11.34 6.74 11.76 6.71 12 6.43C12.24 6.15 12.21 5.73 11.93 5.49ZM4.06 10.5L8 13.87L11.93 10.5C12.21 10.26 12.24 9.84 12 9.56C11.76 9.28 11.34 9.25 11.06 9.49L8 12.12L4.93 9.49C4.65 9.25 4.23 9.28 3.99 9.56C3.75 9.84 3.78 10.26 4.06 10.5Z" fill="#FFFFFF" fill-opacity="1.000000" fill-rule="evenodd"/>
	</g>
</svg>
